<svg width="400" height="120" viewBox="0 0 400 120" xmlns="http://www.w3.org/2000/svg">
  <style>
    .card { font-family: -apple-system, BlinkMacSystemFont, "Segoe UI", Ubuntu, Helvetica, Arial, sans-serif; }
    .title { fill: #1f6feb; font-size: 16px; font-weight: 600; }
    .desc  { fill: #d1d5db;  font-size: 12px; }
    .meta  { fill: #d1d5db;  font-size: 12px; }
    .bg    { fill: #22272e; stroke: #444c56; stroke-width: 1; }
    a text { text-decoration: none; }
  </style>
  <g class="card">
    <rect class="bg" x="0.5" y="0.5" width="399" height="119" rx="6"/>
    <!-- repo icon -->
    <path fill="#1f6feb" transform="translate(25, 22)" d="M2 2.5A2.5 2.5 0 0 1 4.5 0h8.75a.75.75 0 0 1 .75.75v12.5a.75.75 0 0 1-.75.75h-2.5a.75.75 0 1 1 0-1.5h1.75v-2h-8a1 1 0 0 0-.994 1.117.75.75 0 1 1-1.492.166A2.5 2.5 0 0 1 2 11.5Zm10.5-1H4.5a1 1 0 0 0-1 1v6.708A2.486 2.486 0 0 1 4.5 9h8Z" transform-origin="0 0" />
    <text x="46" y="35" class="title">MHS-20/ElkDB</text>
    <text x="25" y="55" class="desc">Custom Relational DBMS written from scratch</text>
    
    <circle cx="30" cy="100" r="6" fill="#00ADD8"/>
    <text x="42" y="105" class="meta">Go</text>

  </g>
</svg>