<svg width="400" height="120" viewBox="0 0 400 120" xmlns="http://www.w3.org/2000/svg">
  <style>
    .card { font-family: -apple-system, BlinkMacSystemFont, "Segoe UI", Ubuntu, Helvetica, Arial, sans-serif; }
    .title { fill: #adbac7; font-size: 16px; font-weight: 600; }
    .desc  { fill: #768390;  font-size: 12px; }
    .meta  { fill: #768390;  font-size: 12px; }
    .bg    { fill: #22272e; stroke: #444c56; stroke-width: 1; }
    a text { text-decoration: none; }
  </style>
  <g class="card">
    <rect class="bg" x="0.5" y="0.5" width="399" height="119" rx="6"/>
    <!-- repo icon -->
    <path fill="#768390" transform="translate(25, 22)" d="M2 2.5A2.5 2.5 0 0 1 4.5 0h8.75a.75.75 0 0 1 .75.75v12.5a.75.75 0 0 1-.75.75h-2.5a.75.75 0 1 1 0-1.5h1.75v-2h-8a1 1 0 0 0-.994 1.117.75.75 0 1 1-1.492.166A2.5 2.5 0 0 1 2 11.5Zm10.5-1H4.5a1 1 0 0 0-1 1v6.708A2.486 2.486 0 0 1 4.5 9h8Z" transform-origin="0 0" />
    <text x="46" y="35" class="title">MHS-20/Zodiac</text>
    <text x="25" y="55" class="desc">Distributed KV Store based on Raft custom implementation</text>
    
    <circle cx="30" cy="100" r="6" fill="#00ADD8"/>
    <text x="42" y="105" class="meta">Go</text>
    <!-- star icon -->
    <path fill="#e3b341" transform="translate(250, 94)" d="M8 .25a.75.75 0 0 1 .673.418l1.882 3.815 4.21.612a.75.75 0 0 1 .416 1.279l-3.046 2.97.719 4.192a.75.75 0 0 1-1.088.791L8 12.347l-3.766 1.98a.75.75 0 0 1-1.088-.79l.72-4.194L.818 6.374a.75.75 0 0 1 .416-1.28l4.21-.611L7.327.668A.75.75 0 0 1 8 .25Z"/>
    <text x="270" y="105" class="meta">0</text>
    <!-- fork icon -->
    <path fill="#768390" transform="translate(310, 94)" d="M5 3.25a.75.75 0 1 1-1.5 0 .75.75 0 0 1 1.5 0Zm0 2.122a2.25 2.25 0 1 0-1.5 0v.878A2.25 2.25 0 0 0 5.75 8.5h1.5v2.128a2.251 2.251 0 1 0 1.5 0V8.5h1.5a2.25 2.25 0 0 0 2.25-2.25v-.878a2.25 2.25 0 1 0-1.5 0v.878a.75.75 0 0 1-.75.75h-4.5a.75.75 0 0 1-.75-.75Zm6.75-.878a.75.75 0 1 0 0-1.5.75.75 0 0 0 0 1.5ZM8.75 12.75a.75.75 0 1 1-1.5 0 .75.75 0 0 1 1.5 0Z"/>
    <text x="330" y="105" class="meta">0</text>
  </g>
</svg>